<?xml version="1.0" standalone="no"?><!DOCTYPE svg PUBLIC "-//W3C//DTD SVG 1.1//EN" "http://www.w3.org/Graphics/SVG/1.1/DTD/svg11.dtd"><svg width="128" height="128" viewBox="0 0 128 128" version="1.1" xmlns="http://www.w3.org/2000/svg" xmlns:xlink="http://www.w3.org/1999/xlink"><defs><style type="text/css"><![CDATA[
@font-face { font-family: ifont; src: url("//at.alicdn.com/t/font_1442373896_4754455.eot?#iefix") format("embedded-opentype"), url("//at.alicdn.com/t/font_1442373896_4754455.woff") format("woff"), url("//at.alicdn.com/t/font_1442373896_4754455.ttf") format("truetype"), url("//at.alicdn.com/t/font_1442373896_4754455.svg#ifont") format("svg"); }

]]></style></defs><g class="transform-group"><g transform="scale(0.125, 0.125)"><path d="M235.977015 323.219814C235.977015 311.944397 240.618578 300.736085 248.590638 292.764023 256.564128 284.786261 267.771001 280.144691 279.046427 280.144691 290.320423 280.144691 301.528724 284.786261 309.500786 292.764023 317.472848 300.736085 322.11441 311.944397 322.11441 323.219814 322.11441 334.493815 317.472848 345.70211 309.500786 353.674172 301.528724 361.646234 290.320423 366.287804 279.046427 366.287804 267.771001 366.287804 256.564128 361.646234 248.590638 353.674172 240.618578 345.70211 235.977015 334.493815 235.977015 323.219814L235.977015 323.219814ZM571.419136 545.941965C571.419136 537.115853 575.056691 528.341163 581.29495 522.102903 587.537495 515.860343 596.31219 512.222788 605.138299 512.222788 613.964407 512.222788 622.739101 515.860343 628.975933 522.102903 635.218483 528.341163 638.856038 537.115853 638.856038 545.941965 638.856038 554.76806 635.218483 563.542767 628.975933 569.78531 622.739101 576.022135 613.964407 579.659691 605.138299 579.659691 596.31219 579.659691 587.537495 576.022135 581.29495 569.78531 575.056691 563.542767 571.419136 554.76806 571.419136 545.941965L571.419136 545.941965ZM455.671431 323.219814C455.671431 311.944397 460.312992 300.736085 468.290767 292.764023 476.262828 284.786261 487.469701 280.144691 498.745127 280.144691 510.019125 280.144691 521.227426 284.786261 529.199486 292.764023 537.171548 300.736085 541.81311 311.944397 541.81311 323.219814 541.81311 334.493815 537.171548 345.70211 529.199486 353.674172 521.227426 361.646234 510.019125 366.287804 498.745127 366.287804 487.469701 366.287804 476.262828 361.646234 468.290767 353.674172 460.312992 345.70211 455.671431 334.493815 455.671431 323.219814L455.671431 323.219814ZM856.926618 0 165.706622 0C74.192157 0 0 74.432085 0 166.253619L0 856.608137C0 948.429653 74.192157 1022.861739 165.706622 1022.861739L856.926618 1022.861739C948.441088 1022.861739 1022.633233 948.429653 1022.633233 856.608137L1022.633233 166.253619C1022.633233 74.432085 948.446788 0 856.926618 0L856.926618 0ZM383.760067 685.283072C345.059437 685.283072 313.940977 677.37815 275.157513 669.718852L166.777752 724.062259 197.784815 630.801135C120.1679 576.547703 73.718002 506.655778 73.718002 421.47811 73.718002 273.963554 213.327621 157.807394 383.760067 157.807394 536.206104 157.807394 669.751706 250.622925 696.579925 375.542357 686.716962 374.438383 676.775458 373.718579 666.72826 373.718579 519.453635 373.718579 403.13466 483.632196 403.13466 619.080124 403.13466 641.623825 406.643681 663.336346 412.70342 684.050569 403.13466 684.803209 393.490208 685.283072 383.760067 685.283072L383.760067 685.283072ZM841.093888 793.885628 864.413099 871.369728 779.369677 824.787012C748.362615 832.557705 717.21559 840.356949 686.342775 840.356949 538.828228 840.356949 422.644932 739.526519 422.644932 615.364011 422.644932 491.402889 538.828228 390.359654 686.342775 390.359654 825.656764 390.359654 949.690726 491.402889 949.690726 615.364011 949.690726 685.283072 903.325099 747.197235 841.093888 793.885628L841.093888 793.885628ZM740.362001 545.941965C740.362001 537.115853 743.999556 528.341163 750.242099 522.102903 756.480358 515.860343 765.255049 512.222788 774.081161 512.222788 782.907273 512.222788 791.681963 515.860343 797.924506 522.102903 804.161331 528.341163 807.798903 537.115853 807.798903 545.941965 807.798903 554.76806 804.161331 563.542767 797.924506 569.78531 791.681963 576.022135 782.907273 579.659691 774.081161 579.659691 765.255049 579.659691 756.480358 576.022135 750.242099 569.78531 743.999556 563.542767 740.362001 554.76806 740.362001 545.941965L740.362001 545.941965Z" fill="#11cd6e"></path></g></g></svg>